<svg width="1042" height="454" viewBox="0 0 1042 454" fill="none" xmlns="http://www.w3.org/2000/svg">
<path d="M828.584 236.281C821.12 239.936 821.12 239.936 826.402 242.567C825.386 245.342 818.788 248.348 820.795 251.083C816.627 253.661 812.677 256.299 808.962 258.986C803.376 263.363 794.834 265.219 787.035 267.36C781.761 268.813 776.386 270.347 770.952 271.632C764.592 273.135 758.348 275.027 751.993 276.537C746.232 277.905 740.387 279.011 734.579 280.176C732.951 280.588 731.283 280.794 729.771 280.769C728.346 280.582 726.706 280.597 724.989 280.812C723.273 281.028 721.531 281.436 719.912 282.004C712.716 284.216 706.114 283.531 699.433 284.004C693.137 284.167 687.253 283.778 682.033 282.853C679.932 282.596 675.395 282.101 681.555 279.665C681.991 279.493 681.127 278.428 681.095 277.731C681.062 277.035 680.861 275.739 681.483 275.524C688.816 273.015 686.301 272.095 683.17 270.483C678.551 268.114 680.2 266.986 686.993 261.99C691.131 258.95 694.639 255.667 701.332 254.191C719.483 250.21 737.64 246.108 755.195 246.618C758.699 246.857 762.55 246.708 766.525 246.181C770.5 245.653 774.519 244.758 778.348 243.546C785.219 241.19 792.995 239.852 798.955 236.388C800.756 235.345 803.922 234.71 806.517 233.984C811.889 232.429 817.55 231.757 822.379 232.1C827.828 232.436 826.64 234.896 828.57 236.276" fill="#E5F1F3"/>
<path d="M1019.78 147.451C1021.48 148.832 1022.97 149.915 1024.21 151.089C1024.6 151.567 1024.76 152.114 1024.68 152.701C1024.69 154.322 1019.28 155.094 1019.46 156.921C1019.72 158.356 1019.26 159.93 1018.11 161.531C1017.06 162.803 1012.46 164.469 1012.66 165.205C1013.11 166.848 1012.79 167.788 1008.83 168.906C1008.1 169.113 1007.57 170.032 1007.26 170.603C1004.93 174.834 1004.93 174.831 995.533 176.519L999.886 177.936C996.738 178.373 993.614 178.706 990.536 178.935C987.298 179.015 984.153 178.965 981.127 178.785C978.096 178.464 974.644 178.566 971.069 179.083L981.613 180.505L980.994 181.172C978.859 181.198 976.767 181.167 974.725 181.079C964.638 180.397 954.827 179.414 944.496 179.014C935.538 178.866 928.194 177.086 923.693 173.971C926.53 173.065 930.224 172.277 927.081 170.786C923.646 169.158 926.083 167.117 930.939 164.599C926.241 163.787 920.38 163.154 927.062 158.577L939.892 159.494L941.184 158.573L930.149 155.359C934.825 153.429 939.246 151.893 944.293 152.62C945.703 152.82 948.327 151.966 950.317 151.774C958.983 150.94 958.971 150.971 962.529 147.617C963.212 146.976 963.819 146.334 964.466 145.69L966.237 143.929C970.815 142.511 975.116 141.247 979.314 139.862C987.871 137.275 996.972 136.041 1004.9 136.394C1009 136.403 1012.5 137.14 1016.61 137.114C1020.43 137.272 1023.39 138.217 1024.87 139.756C1028.62 142.274 1027.64 143.431 1019.76 147.45" fill="#E5F1F3"/>
<path d="M685.144 473.137C684.552 470.206 683.85 467.372 683.591 464.451C683.565 464.17 686.207 463.351 688.493 462.426C687.135 461.801 685.923 461.105 684.868 460.342C684.007 459.383 683.272 458.383 682.666 457.343C681.155 455.328 679.209 453.347 686.824 451.077C687.405 450.903 687.636 450.263 688.13 449.855C691.659 446.942 693.139 444.027 700.348 441.362C706.043 438.89 711.948 436.56 718.021 434.391C723.984 432.408 730.196 430.775 736.469 429.539C746.323 427.341 756.188 426.661 764.486 427.61C766.628 428.248 768.492 429.051 770.038 430.001L760.383 433.496C765.47 434.966 772.786 435.267 775.023 438.819L765.819 442.388L774.056 442.982C772.087 447.068 769.175 451.207 765.38 455.318C763.108 457.522 759.5 459.536 755.218 460.99C750.141 462.958 744.818 464.699 739.354 466.178C734.063 467.333 728.885 469.059 723.398 470.266C714.607 471.797 705.843 472.994 697.194 473.846C692.799 474.049 688.705 473.808 685.144 473.137Z" fill="#E5F1F3"/>
<path d="M580.723 195.953L556.231 194.192C561.339 195.582 567.254 196.425 573.735 196.686C576.215 196.893 579.981 196.461 579.776 198.268C579.758 200.101 579.122 202.034 577.891 203.999C577.407 204.666 573.43 205.693 571.254 205.934C568.786 206 566.469 205.861 564.391 205.521C564.125 206.632 564.417 207.324 563.745 207.876C562.351 209.018 558.827 210.475 559.016 211.124C560.08 214.739 553.597 218.152 550.526 221.589C549.647 222.476 548.42 223.327 546.935 224.079C545.45 224.83 543.746 225.463 541.949 225.929C534.586 227.348 529.224 230.895 520.779 232.348C517.198 232.07 513.03 232.481 508.959 233.513C505.322 234.565 501.543 235.286 497.875 235.627C494.206 235.969 490.731 235.924 487.681 235.494C484.259 235.064 480.665 234.786 476.929 234.665C476.644 230 476.671 225.168 475.97 220.491C475.249 215.594 482.885 211.734 490.35 208.146C495.803 205.529 500.807 201.848 508.81 201.399C520.156 195.499 533.154 195.236 545.479 192.531C553.229 191.256 560.824 190.771 567.743 191.109C573.546 190.961 577.584 193.48 582.407 194.81L580.723 195.953Z" fill="#E5F1F3"/>
<path d="M361.106 291.806L385.908 284.125C390.355 284.306 394.647 284.653 398.753 285.164C400.287 285.409 400.633 286.86 400.615 287.919C400.616 288.321 398.081 289.161 396.658 289.828C399.063 291.003 403.039 291.875 398.754 294.959C397.833 295.545 397.291 296.203 397.233 296.804C397.917 297.553 398.12 298.452 397.826 299.422C397.532 300.391 396.748 301.403 395.544 302.369C390.757 306.036 384.649 309.421 377.667 312.278C363.411 317.549 347.933 321.446 332.541 323.641C323.156 324.841 313.899 325.609 304.898 325.935C302.592 326.008 300.548 325.746 298.999 325.18C297.45 324.614 296.461 323.765 296.144 322.733C295.187 318.751 293.735 314.864 293.093 310.812C292.85 309.348 293.648 307.699 295.377 306.094C299.962 301.623 307.196 297.508 315.844 294.452C324.493 291.395 334.017 289.587 342.791 289.337C346.068 288.86 349.273 288.663 352.25 288.757C355.566 289.558 358.534 290.581 361.103 291.809" fill="#E5F1F3"/>
<path d="M579.89 102.787C582.525 100.832 586.166 99.128 590.251 97.9372C594.336 96.7464 598.64 96.1348 602.499 96.1964C611.178 95.6834 619.563 95.6666 627.492 96.1462C637.578 97.3274 648.151 98.073 659.121 98.3766C664.417 98.5311 666.366 100.6 671.168 100.898C672.424 100.987 673.85 102.095 673.355 102.539C669.501 105.977 674.641 108.099 671.015 111.731C668.612 114.133 670.281 116.813 670.113 119.693C662.616 122.007 662.859 128.087 650.074 129.478C644.038 127.537 633.938 130.582 625.094 131.23C623.859 131.32 622.282 131.868 621.27 131.804C609.178 131.002 597.162 130.124 584.083 129.192L591.142 126.807C587.966 126.952 585.821 126.743 584.583 127.223C583.345 127.703 582.892 128.992 581.591 129.761C581.004 130.109 579.059 130.182 577.941 130.143C577.424 130.129 576.933 129.455 577.231 129.246C579.452 127.66 581.874 126.113 584.437 124.413L574.415 120.013L579.024 116.027C573.587 117.693 574.555 115.401 573.208 114.455C571.748 113.555 570.158 112.714 568.444 111.933C573.542 107.763 580.074 106.539 587.755 105.883L579.872 102.804" fill="#E5F1F3"/>
<path d="M221.51 485.879L224.281 481.843L217.304 483.047L209.624 472.24C210.326 471.65 210.931 471.05 211.432 470.445C216.329 463.014 228.636 458.708 241.687 455.32C251.981 452.632 262.47 450.515 272.892 449.019C279.787 447.71 286.491 447.594 291.705 448.695L261.2 453.094L260.748 454.184C262.34 454.208 263.997 454.147 265.694 454.001C272.669 453.093 279.684 451.992 286.634 451.161C289.707 450.794 294.031 449.841 292.185 452.92C291.616 453.87 294.675 454.667 296.096 455.523C297.345 456.274 298.639 457.006 299.654 457.605C297.107 460.666 292.291 460.354 288.419 462.098L299.872 461.357L301.393 465.274C299.103 465.986 295.673 466.9 298.977 468.212C302.537 469.635 302.731 471.376 297.06 473.75C296.544 473.967 295.833 474.442 295.91 474.616C297.368 477.959 291.075 479.416 286.24 480.569C274.674 482.925 263.08 484.587 251.766 485.511C249.083 485.823 242.874 486.478 246.088 483.017C246.283 482.824 244.475 482.544 243.588 482.288C242.552 482.983 240.441 484.012 240.661 484.321C240.99 484.547 241.095 484.856 240.96 485.197C240.824 485.538 240.454 485.891 239.912 486.198C239.37 486.505 238.687 486.748 237.975 486.888C237.263 487.027 236.563 487.055 235.991 486.966C232.23 485.453 224.754 487.802 221.486 485.87" fill="#E5F1F3"/>
<path d="M856.871 339.758L851.212 345.504C849.024 347.726 847.309 350.178 841.122 350.273C840.577 350.366 840.038 350.523 839.555 350.729C839.072 350.935 838.662 351.182 838.363 351.448C836.464 354.131 831.392 354.49 827.868 355.96C818.324 359.94 809.037 359.95 799.957 360.468C794.801 360.759 792.326 359.687 792.113 356.523C791.87 352.975 793.737 348.694 789.657 345.97C791.556 343.968 787.639 341.931 794.359 339.924C795.447 339.497 796.32 338.934 796.812 338.341C804.285 330.463 817.11 326.132 831.812 322.794C839.148 320.705 846.725 319.249 854.11 318.51C857.17 318.383 860.158 318.371 863.05 318.474C863.999 318.505 865.278 318.926 865.144 319.315C864.041 322.61 866.538 325.266 865.473 328.467C864.247 332.19 861.305 336.052 856.871 339.758Z" fill="#E5F1F3"/>
<path d="M189.322 255.093L177.917 257.464C181.643 258.053 182.903 258.267 184.2 258.452C188.503 259.057 188.504 259.05 185.869 262.304C185.542 262.713 184.844 263.325 185.089 263.495C186.345 264.216 186.831 265.245 186.465 266.404C186.098 267.564 184.901 268.782 183.08 269.847C179.185 272.456 174.497 274.839 169.288 276.86C149.397 283.466 128.134 287.942 107.553 289.855C103.929 289.958 100.536 289.746 97.5164 289.228L100.469 286.815C96.1357 286.678 93.6057 285.941 95.329 283.182C95.497 282.676 95.4081 282.206 95.0697 281.812C94.7313 281.417 94.1538 281.11 93.3868 280.917C88.6656 280.289 93.953 277.618 92.3503 276.441C98.4891 275.18 95.7037 272.077 100.762 270.512C105.587 269.027 110.334 266.863 115.118 265.997C125.692 263.963 136.265 262.446 146.652 261.473C148.856 261.373 151.169 261.049 153.456 260.52C155.742 259.991 157.954 259.269 159.961 258.395C166.057 255.537 173.22 253.405 180.426 252.306C186.654 251.395 186.663 251.336 189.322 255.093Z" fill="#E5F1F3"/>
<path d="M287.219 381.514C288.649 381.529 289.995 381.645 291.22 381.859C292.016 382.063 291.761 383 292.578 383.146C293.395 383.292 295.207 382.749 296.289 382.827C297.233 382.895 297.656 383.719 298.496 383.623C300.141 383.397 301.801 382.973 303.317 382.393C304.443 381.829 305.428 381.206 306.229 380.549C303.408 380.766 301.132 380.938 298.839 381.117C303.483 379.054 307.877 376.712 312.614 378.233L307.442 381.009C314.072 381.874 314.067 377.97 318.781 376.805C316.306 378.827 317.47 380.378 314.93 382.409C313.738 383.366 316.146 384.858 317.169 386.507L300.03 392.763L306.701 393.969L300.698 403.451C295.422 404.807 290.838 405.811 286.439 407.134C282.628 408.284 279.157 409.99 275.331 411.087C264.652 413.831 253.722 415.509 243.351 415.998C239.603 416.297 233.931 416.516 236.491 413.009C230.586 412.582 233.152 409.044 230.976 407.2C229.817 405.908 229.819 404.266 230.982 402.55C232.146 400.834 234.399 399.147 237.367 397.771C246.984 392.925 258.142 388.957 269.812 386.235C275.437 384.709 281.066 382.946 287.213 381.513" fill="#E5F1F3"/>
<path d="M39.8643 454.567L34.5874 457.671C44.3326 458.618 52.8768 453.129 62.8656 452.99C61.3138 453.917 59.6064 454.791 57.7753 455.597C54.6914 456.643 51.5536 457.627 48.3743 458.544C52.1106 458.666 56.3521 458.071 60.3383 456.864C64.4172 460.866 64.4172 460.866 60.3301 464.915C53.1812 466.51 46.1669 468.541 39.5006 470.947C32.804 473.859 25.8872 474.365 19.259 476.377C12.6261 478.192 5.82477 479.585 -0.918696 480.51C-4.73917 481.224 -8.49188 481.417 -11.7084 481.066C-15.1851 480.456 -19.8888 479.159 -19.4696 477.594C-18.7832 475.017 -22.4766 475.344 -24.4005 474.378C-25.9674 473.804 -27.0472 472.982 -27.5459 471.984C-28.0447 470.986 -27.9474 469.842 -27.2624 468.652C-26.1579 467.07 -26.4394 465.076 -24.3678 464.004C-19.3804 461.304 -13.6715 458.923 -7.55203 456.992C3.85734 453.711 15.4302 450.734 27.0943 448.081C29.9951 447.416 33.2589 448.06 37.6246 448.107L31.5412 450.314C38.0811 450.266 37.2088 453.333 39.8704 454.568" fill="#E5F1F3"/>
<path d="M502.682 435.045C500.215 437.225 500.734 438.891 496.107 440.718L497.089 438.032C491.712 438.456 486.285 438.968 480.982 439.249C479.636 439.322 477.611 438.802 477.724 438.308C478.332 435.621 474.144 434.473 473.41 432.279C473.315 431.182 473.846 429.979 474.95 428.783C475.419 428.194 477.677 427.625 478.152 427.037C478.483 426.245 478.515 425.486 478.248 424.797C486.337 424.2 486.56 424.276 493.548 420.145C497.735 417.672 502.852 417.463 507.556 415.85L504.006 414.256C505.896 413.685 508.098 412.67 509.196 412.749C522.891 413.766 523.207 413.781 534.918 410.893C530.68 408.488 523.319 411.988 517.046 411.757C518.239 410.846 519.425 409.454 520.319 409.331C529.107 408.216 538.378 406.213 544.384 409.381C546.257 410.364 547.507 410.609 545.781 412.393C544.847 413.588 544.516 414.767 544.818 415.814C545.165 418.553 545.857 421.22 546.464 424.168L542.561 425.033C537.735 426.976 542.726 429.722 534.858 429.54C532.618 429.489 535.063 432.508 529.458 432.106C527.297 431.951 522.918 434.001 519.803 434.968L515.548 433.416L513.412 434.277L517.799 436.535C513.158 437.425 510.465 437.945 506.938 438.625L502.682 435.045Z" fill="#E5F1F3"/>
<path d="M219.12 200.222L232 196.937L227.637 194.886C231.986 192.782 237.024 191.102 242.238 190.017C253.242 187.477 264.361 185.696 275.429 183.111C278.867 182.408 282.303 182.04 285.506 182.032C288.71 182.024 291.607 182.376 294.005 183.064C292.15 186.049 285.361 186.239 281.373 188.553L292.563 189.355L282.794 202.644C272.567 206.141 261.645 208.67 250.877 210.034C244.865 210.812 238.87 212.89 232.548 213.199C230.058 213.32 228.667 211.534 225.064 213.368C224.319 213.129 223.616 212.866 222.96 212.578C228.176 209.566 220.992 207.908 225.367 204.962C225.654 204.771 224.076 204.083 223.219 203.697C222.142 203.347 221.138 202.954 220.212 202.522C219.635 201.82 219.263 201.054 219.104 200.238" fill="#E5F1F3"/>
<path d="M14.8241 135.834L3.5297 138.315C4.85328 138.716 5.51188 139.169 6.46077 139.155C11.1118 139.017 15.8473 138.756 21.2102 138.486L17.4339 142.239L10.247 143.341L19.7777 144.022C19.4069 144.665 19.2035 145.298 19.1725 145.904C19.515 146.998 20.9754 148.807 20.5709 148.952C16.4791 150.418 15.9202 152.543 13.2129 154.061C11.4021 155.282 8.99914 156.321 6.36464 157.021C3.73014 157.721 1.00627 158.043 -1.39807 157.941C-3.03361 157.824 -3.6343 156.487 -5.17402 156.57C-6.43974 156.636 -8.35348 158.275 -10.115 158.681C-10.9936 158.838 -11.8575 158.894 -12.6286 158.842C-13.3996 158.791 -14.0534 158.634 -14.5306 158.387C-15.2619 156.552 -18.7563 156.687 -21.7924 156.591C-23.4501 156.634 -24.8212 156.343 -25.6138 155.779C-26.4063 155.214 -26.5579 154.423 -26.0361 153.571C-25.0939 151.585 -26.8608 150.977 -29.7689 150.338C-31.861 149.999 -33.259 149.196 -33.6694 148.097C-34.0799 146.998 -33.4711 145.689 -31.9707 144.444C-30.8002 143.406 -29.8652 142.348 -29.1879 141.294C-27.6229 138.657 -23.2505 135.503 -19.0563 134.954C-8.78652 133.588 1.90009 131.32 11.1423 132.544C14.741 133.022 14.5478 134.366 14.8241 135.834Z" fill="#E5F1F3"/>
<path d="M147.54 344.745L139.653 349.752C140.73 350.407 142.392 350.768 144.38 350.778C146.367 350.788 148.569 350.447 150.64 349.807C152.025 352.27 145.176 353.349 143.612 355.553C145.382 355.893 147.22 356.259 149.011 356.622C150.563 358.548 143.083 359.643 143.862 361.892C144.641 364.141 137.923 364.27 135.443 365.999C133.607 367.021 131.359 367.847 128.998 368.368C121.48 370.357 113.805 370.194 106.131 373.051C104.298 373.735 100.993 373.062 97.5114 372.99C104.104 369.687 94.3331 368.75 100.067 365.53C98.0849 364.268 91.64 364.858 94.7928 360.979L102.61 359.463L98.4602 357.536C99.6775 355.331 103.95 354.587 106.743 354.035C115.801 352.272 124.651 349.49 132.455 345.951C133.65 345.352 135.003 344.843 136.429 344.454C137.856 344.065 139.324 343.806 140.742 343.693C142.16 343.58 143.497 343.615 144.667 343.796C145.837 343.977 146.815 344.3 147.54 344.745Z" fill="#E5F1F3"/>
<path d="M533.748 361.867L530.431 352.938L535.81 347.572C543.346 345.872 551.18 345.707 558.762 342.948C566.645 343.171 574.268 340.598 582.067 338.465C584.572 337.767 587.605 338.157 591.065 338.052C590.603 339.007 589.65 339.92 589.988 340.445C593.321 345.948 584.033 350.251 574.478 353.736C566.103 356.7 557.286 359.146 548.341 360.986C543.287 361.701 538.348 361.999 533.742 361.866" fill="#E5F1F3"/>
</svg>
