<svg width="110" height="27" viewBox="0 0 110 27" fill="none" xmlns="http://www.w3.org/2000/svg">
<g clip-path="url(#clip0_1_195)">
<path d="M28.9109 9.56793H40.0396V11.6392H35.6531V23.3151H33.2515V11.6392H28.8929L28.9109 9.56793ZM39.5621 13.3625H41.6157V15.2873H41.6526C41.7317 15.0032 41.8621 14.736 42.0374 14.4988C42.2246 14.2315 42.4534 13.9959 42.7153 13.8011C42.9773 13.581 43.2751 13.4074 43.5956 13.2878C43.9035 13.1586 44.2337 13.0909 44.5676 13.0884C44.8238 13.0884 45.0073 13.1064 45.099 13.1064C45.1954 13.1277 45.2935 13.14 45.3921 13.1432V15.2494C45.235 15.2145 45.0758 15.1898 44.9156 15.1756C44.7575 15.1542 44.5984 15.1419 44.439 15.1388C44.0791 15.1375 43.723 15.2126 43.3942 15.359C43.0663 15.5119 42.7731 15.7304 42.5329 16.0009C42.2766 16.3183 42.0782 16.6783 41.9467 17.0645C41.7924 17.5376 41.718 18.0331 41.7264 18.5307V23.2603H39.5262L39.5621 13.3625ZM55.475 23.3161H53.3177V21.9206H53.2808C53.0002 22.4305 52.5805 22.8502 52.0705 23.1307C51.5778 23.4279 51.0139 23.5863 50.4385 23.5892C49.923 23.6392 49.4028 23.5784 48.9127 23.4107C48.4227 23.2431 47.9742 22.9726 47.5973 22.6174C46.9497 21.7832 46.6359 20.7378 46.717 19.6849V13.3606H48.9172V19.4647C48.8459 20.1245 49.0296 20.7867 49.4306 21.3156C49.6122 21.5038 49.8324 21.6505 50.0761 21.7455C50.3198 21.8405 50.5812 21.8815 50.8423 21.8658C51.2389 21.878 51.6334 21.8028 51.9977 21.6455C52.2901 21.5189 52.5479 21.3241 52.7494 21.0774C52.9508 20.8243 53.0947 20.5304 53.1711 20.2162C53.2623 19.8631 53.3055 19.4994 53.2997 19.1347V13.3606H55.4999V23.3141L55.475 23.3161ZM59.2155 20.1265C59.2246 20.3939 59.2955 20.6557 59.4228 20.891C59.5501 21.1264 59.7303 21.3291 59.9492 21.4831C60.4112 21.7491 60.9377 21.8823 61.4705 21.8678C61.7041 21.8658 61.9373 21.8474 62.1684 21.813C62.4196 21.7824 62.6661 21.7208 62.9021 21.6296C63.1244 21.5511 63.321 21.4132 63.4704 21.2309C63.6226 21.0395 63.6941 20.7964 63.6698 20.5531C63.6668 20.4219 63.6376 20.2926 63.5841 20.1728C63.5305 20.053 63.4535 19.9451 63.3577 19.8554C63.1391 19.6693 62.8912 19.5208 62.624 19.4158C62.29 19.2956 61.9465 19.2036 61.5971 19.1407C61.2123 19.0669 60.8275 18.9762 60.4238 18.8845C60.02 18.7928 59.6173 18.6852 59.2275 18.5546C58.8575 18.4372 58.5102 18.2575 58.2006 18.0234C57.8969 17.805 57.6515 17.5154 57.4858 17.1801C57.2904 16.7879 57.1958 16.3532 57.2107 15.9152C57.1882 15.4312 57.3285 14.9535 57.6094 14.5586C57.8728 14.1913 58.2178 13.8901 58.6173 13.6785C59.0417 13.4492 59.4996 13.2884 59.9741 13.2021C60.4398 13.1163 60.9123 13.0733 61.3858 13.0735C61.8794 13.0711 62.3716 13.1266 62.8523 13.2389C63.3034 13.3358 63.7324 13.516 64.1174 13.7702C64.4989 14.0109 64.8191 14.3372 65.0525 14.7231C65.3168 15.1511 65.4798 15.6339 65.529 16.1345H63.2361C63.2093 15.9134 63.1306 15.7018 63.0064 15.517C62.8821 15.3321 62.7159 15.1793 62.5213 15.071C62.1139 14.8814 61.6686 14.7873 61.2193 14.7959C61.0728 14.7959 60.8714 14.8138 60.669 14.8327C60.4631 14.8621 60.2604 14.9111 60.0639 14.9793C59.8858 15.0504 59.7237 15.1564 59.5874 15.2912C59.5205 15.3621 59.4684 15.4456 59.4342 15.5368C59.4 15.6281 59.3842 15.7252 59.388 15.8225C59.3827 15.9433 59.4047 16.0637 59.4523 16.1748C59.5 16.286 59.572 16.3849 59.6631 16.4644C59.8819 16.6458 60.13 16.7884 60.3969 16.8861C60.7309 17.0062 61.0743 17.0983 61.4237 17.1612C61.8085 17.2349 62.2123 17.3266 62.62 17.4173C63.0277 17.508 63.4086 17.6167 63.7934 17.7473C64.165 17.8608 64.5129 18.0408 64.8202 18.2785C65.1202 18.4989 65.3702 18.7802 65.554 19.1038C65.7475 19.4835 65.8421 19.9059 65.8291 20.3318C65.8482 20.8613 65.7094 21.3845 65.4303 21.8349C65.158 22.2415 64.8018 22.5852 64.3856 22.8427C63.9399 23.1021 63.4581 23.2936 62.956 23.4108C62.4442 23.525 61.9221 23.5864 61.3978 23.5942C60.81 23.5991 60.2242 23.525 59.6561 23.3739C59.1571 23.2428 58.6848 23.0256 58.2604 22.732C57.875 22.4477 57.5613 22.0774 57.3443 21.6505C57.107 21.1716 56.9815 20.645 56.9774 20.1106H59.1995V20.1285L59.2155 20.1265ZM66.4572 13.3625H68.125V10.3563H70.3253V13.3466H72.3051V14.9783H70.3253V20.294C70.3267 20.4961 70.339 20.6981 70.3621 20.899C70.3801 21.0459 70.4236 21.1886 70.4907 21.3206C70.5681 21.4341 70.6764 21.523 70.8028 21.5768C70.991 21.6428 71.1896 21.6739 71.389 21.6685C71.5421 21.6716 71.6952 21.6657 71.8476 21.6505C72.0017 21.6349 72.1549 21.6103 72.3062 21.5768V23.2812C72.0679 23.3181 71.8296 23.3361 71.5913 23.355C71.3544 23.386 71.1154 23.3983 70.8766 23.3919C70.4057 23.4064 69.9353 23.3506 69.4809 23.2264C69.1714 23.1364 68.8882 22.9729 68.6554 22.7499C68.4555 22.5267 68.3179 22.2548 68.2566 21.9615C68.1815 21.6005 68.1385 21.2336 68.128 20.8651V14.9992H66.4602V13.3675L66.4572 13.3625ZM73.8454 13.3625H75.917V14.7191H75.9539C76.2289 14.1709 76.681 13.7315 77.237 13.4722C77.799 13.2119 78.4121 13.0804 79.0314 13.0874C79.7396 13.065 80.4431 13.2095 81.0851 13.5091C81.6527 13.7652 82.1497 14.1551 82.5336 14.6454C82.9313 15.1439 83.2243 15.7175 83.395 16.3319C83.7733 17.6353 83.7861 19.0176 83.4319 20.3278C83.2668 20.9249 83 21.489 82.6433 21.9954C82.2917 22.4778 81.8339 22.873 81.3054 23.1506C80.7165 23.4545 80.0608 23.6057 79.3983 23.5902C79.0786 23.5869 78.7597 23.5562 78.4452 23.4985C78.13 23.4433 77.8225 23.3509 77.5291 23.2234C77.2376 23.0971 76.9659 22.9292 76.7225 22.725C76.4771 22.5292 76.2664 22.2933 76.0995 22.0273H76.0626V26.9951H73.8644V13.3625H73.8454ZM81.5267 18.3463C81.5301 17.9057 81.4683 17.467 81.3433 17.0445C81.2379 16.6417 81.0576 16.2624 80.8119 15.9262C80.5806 15.6083 80.2877 15.3402 79.9506 15.1378C79.585 14.9353 79.172 14.8341 78.7543 14.8447C78.3538 14.8187 77.9531 14.8921 77.5878 15.0584C77.2226 15.2246 76.9041 15.4786 76.6607 15.7976C76.1653 16.5591 75.9212 17.4568 75.9629 18.3642C75.9543 18.8359 76.0161 19.3062 76.1463 19.7597C76.2549 20.1581 76.442 20.5309 76.6966 20.8561C76.9323 21.1626 77.2329 21.4131 77.5769 21.5897C77.9464 21.78 78.3577 21.8746 78.7732 21.8648C79.2154 21.8774 79.6527 21.7696 80.0383 21.5529C80.375 21.3499 80.6679 21.0819 80.8997 20.7644C81.128 20.4252 81.2897 20.0457 81.3762 19.6461C81.4726 19.22 81.5244 18.7851 81.5307 18.3483L81.5267 18.3463ZM85.3948 9.56592H87.595V11.6372H85.3948V9.56592ZM85.3948 13.3606H87.595V23.3141H85.3948V13.3606ZM89.556 9.56592H91.7562V23.3131H89.556V9.56592ZM98.4655 23.5882C97.7367 23.6047 97.0124 23.4689 96.3391 23.1895C95.7465 22.9378 95.2103 22.5701 94.7619 22.108C94.3262 21.6253 93.9953 21.0575 93.7899 20.4405C93.5588 19.7617 93.4412 19.0494 93.442 18.3324C93.4317 17.6194 93.5495 16.9104 93.7899 16.2392C93.9996 15.6241 94.33 15.0571 94.7619 14.5716C95.2019 14.0998 95.7404 13.7306 96.3391 13.4901C97.015 13.2194 97.7374 13.0839 98.4655 13.0914C99.1944 13.0749 99.9186 13.2108 100.592 13.4901C101.188 13.7352 101.726 14.1038 102.169 14.5716C102.605 15.0544 102.936 15.6222 103.141 16.2392C103.373 16.9127 103.49 17.6201 103.489 18.3324C103.5 19.0502 103.383 19.7643 103.141 20.4405C102.924 21.0522 102.595 21.6179 102.169 22.108C101.729 22.5799 101.191 22.9491 100.592 23.1895C99.9174 23.4624 99.1952 23.5986 98.4675 23.5902L98.4655 23.5882ZM98.4655 21.8469C98.9072 21.8549 99.3433 21.7473 99.7306 21.5349C100.082 21.3365 100.383 21.0607 100.611 20.7285C100.848 20.3895 101.021 20.0107 101.124 19.6102C101.344 18.7752 101.344 17.8975 101.124 17.0625C101.025 16.6607 100.851 16.2813 100.611 15.9441C100.377 15.6214 100.077 15.3525 99.7306 15.1557C99.3425 14.9454 98.9069 14.8381 98.4655 14.8437C98.0238 14.8358 97.5878 14.9433 97.2004 15.1557C96.8544 15.3531 96.5543 15.6219 96.3201 15.9441C96.0802 16.2813 95.906 16.6607 95.8067 17.0625C95.5867 17.8975 95.5867 18.7752 95.8067 19.6102C95.906 20.0119 96.0802 20.3914 96.3201 20.7285C96.5532 21.0566 96.8532 21.3314 97.2004 21.5349C97.5857 21.7546 98.0243 21.8633 98.4675 21.8489L98.4655 21.8469ZM104.148 13.3606H105.816V10.3544H108.016V13.3446H109.996V14.9763H108.019V20.292C108.021 20.4942 108.033 20.6961 108.056 20.897C108.074 21.044 108.117 21.1867 108.185 21.3186C108.262 21.4322 108.37 21.5211 108.497 21.5748C108.685 21.6408 108.883 21.6719 109.083 21.6665C109.236 21.6697 109.389 21.6637 109.541 21.6485C109.696 21.6329 109.849 21.6083 110 21.5748V23.2792C109.762 23.3161 109.523 23.334 109.285 23.353C109.048 23.384 108.809 23.3963 108.57 23.3899C108.1 23.4044 107.629 23.3486 107.175 23.2244C106.865 23.1344 106.582 22.9709 106.349 22.748C106.149 22.5248 106.012 22.2528 105.95 21.9595C105.875 21.5985 105.832 21.2317 105.822 20.8631V14.9972H104.151V13.3655L104.148 13.3606Z" fill="black"/>
<path d="M26.3448 9.56882H16.2798L13.1814 0L10.069 9.56882L0 9.55087L8.13992 15.4716L5.02352 25.0404L13.1634 19.1197L21.3033 25.0404L18.2049 15.4716L26.3448 9.56882Z" fill="#00B67A"/>
<path d="M18.9018 17.6334L18.2039 15.4705L13.1814 19.1186L18.9018 17.6334Z" fill="#005128"/>
</g>
<defs>
<clipPath id="clip0_1_195">
<rect width="110" height="27" fill="white"/>
</clipPath>
</defs>
</svg>
